<svg xmlns="http://www.w3.org/2000/svg" width="800" height="800" viewBox="0 0 800 800">
  <defs>
    <style>
      .d { fill: none; stroke: #174DA4; stroke-width: 1.5; stroke-linecap: round; stroke-linejoin: round; opacity: 0.13; }
      .df { fill: #174DA4; stroke: none; opacity: 0.09; }
    </style>
  </defs>
  <!-- Phone handset -->
  <g transform="translate(60,40) rotate(-15)">
    <path class="d" d="M2,8 C2,4 5,2 8,4 L12,8 C14,10 13,13 10,12 L8,11 C7,14 7,18 10,21 L13,24 C16,27 20,27 23,26 L22,24 C21,21 24,20 26,22 L30,26 C32,29 30,32 26,32 C18,32 8,24 2,14 C0,11 1,9 2,8Z"/>
  </g>
  <!-- Speech bubble -->
  <g transform="translate(180,30)">
    <path class="d" d="M4,2 L28,2 C30,2 32,4 32,6 L32,18 C32,20 30,22 28,22 L14,22 L8,28 L8,22 L4,22 C2,22 0,20 0,18 L0,6 C0,4 2,2 4,2Z"/>
    <circle class="df" cx="8" cy="12" r="1.5"/>
    <circle class="df" cx="16" cy="12" r="1.5"/>
    <circle class="df" cx="24" cy="12" r="1.5"/>
  </g>
  <!-- Book -->
  <g transform="translate(340,25)">
    <path class="d" d="M2,4 L2,28 C2,28 8,26 16,28 L16,4 C16,4 8,2 2,4Z"/>
    <path class="d" d="M30,4 L30,28 C30,28 24,26 16,28 L16,4 C16,4 24,2 30,4Z"/>
    <line class="d" x1="6" y1="10" x2="12" y2="9"/>
    <line class="d" x1="6" y1="14" x2="12" y2="13"/>
    <line class="d" x1="6" y1="18" x2="10" y2="17"/>
  </g>
  <!-- WiFi signal -->
  <g transform="translate(500,35)">
    <path class="d" d="M12,22 L14,22"/>
    <path class="d" d="M7,17 C9,15 11,14 13,14 C15,14 17,15 19,17"/>
    <path class="d" d="M3,12 C6,9 9,8 13,8 C17,8 20,9 23,12"/>
    <path class="d" d="M0,7 C4,3 8,1 13,1 C18,1 22,3 26,7"/>
    <circle class="df" cx="13" cy="22" r="1.8"/>
  </g>
  <!-- Pencil -->
  <g transform="translate(660,30) rotate(35)">
    <path class="d" d="M2,24 L5,2 L9,2 L12,24 L7,28 L2,24Z"/>
    <line class="d" x1="5" y1="2" x2="5" y2="6"/>
    <line class="d" x1="9" y1="2" x2="9" y2="6"/>
    <path class="d" d="M2,24 L7,28 L12,24"/>
    <circle class="df" cx="7" cy="26" r="1"/>
  </g>
  <!-- Headphones -->
  <g transform="translate(45,160)">
    <path class="d" d="M6,20 L6,14 C6,8 10,4 16,4 C22,4 26,8 26,14 L26,20"/>
    <rect class="d" x="2" y="17" width="6" height="10" rx="2"/>
    <rect class="d" x="24" y="17" width="6" height="10" rx="2"/>
  </g>
  <!-- Envelope -->
  <g transform="translate(175,155)">
    <rect class="d" x="0" y="4" width="30" height="22" rx="2"/>
    <polyline class="d" points="0,4 15,16 30,4"/>
    <line class="d" x1="0" y1="26" x2="10" y2="16"/>
    <line class="d" x1="30" y1="26" x2="20" y2="16"/>
  </g>
  <!-- Lightbulb -->
  <g transform="translate(350,150)">
    <path class="d" d="M12,2 C6,2 2,7 2,12 C2,16 5,18 6,20 L6,24 L18,24 L18,20 C19,18 22,16 22,12 C22,7 18,2 12,2Z"/>
    <line class="d" x1="8" y1="24" x2="8" y2="27"/>
    <line class="d" x1="16" y1="24" x2="16" y2="27"/>
    <path class="d" d="M8,27 L16,27"/>
    <line class="d" x1="12" y1="8" x2="12" y2="14"/>
    <line class="d" x1="9" y1="11" x2="15" y2="11"/>
  </g>
  <!-- Monitor/Screen -->
  <g transform="translate(505,148)">
    <rect class="d" x="0" y="0" width="32" height="22" rx="2"/>
    <line class="d" x1="10" y1="22" x2="10" y2="28"/>
    <line class="d" x1="22" y1="22" x2="22" y2="28"/>
    <line class="d" x1="6" y1="28" x2="26" y2="28"/>
    <line class="d" x1="6" y1="8" x2="16" y2="8"/>
    <line class="d" x1="6" y1="12" x2="26" y2="12"/>
    <line class="d" x1="6" y1="16" x2="20" y2="16"/>
  </g>
  <!-- Globe -->
  <g transform="translate(660,150)">
    <circle class="d" cx="14" cy="14" r="13"/>
    <ellipse class="d" cx="14" cy="14" rx="6" ry="13"/>
    <line class="d" x1="1" y1="10" x2="27" y2="10"/>
    <line class="d" x1="1" y1="18" x2="27" y2="18"/>
    <line class="d" x1="14" y1="1" x2="14" y2="27"/>
  </g>
  <!-- Video camera -->
  <g transform="translate(55,290)">
    <rect class="d" x="0" y="4" width="22" height="18" rx="2"/>
    <polygon class="d" points="22,8 32,4 32,22 22,18"/>
    <circle class="df" cx="8" cy="13" r="2"/>
  </g>
  <!-- Graduation cap -->
  <g transform="translate(185,285)">
    <polygon class="d" points="16,4 0,12 16,20 32,12"/>
    <polyline class="d" points="6,14 6,22 16,26 26,22 26,14"/>
    <line class="d" x1="32" y1="12" x2="32" y2="24"/>
    <circle class="df" cx="32" cy="25" r="1.5"/>
  </g>
  <!-- Music note -->
  <g transform="translate(365,290)">
    <circle class="d" cx="6" cy="22" r="4"/>
    <line class="d" x1="10" y1="22" x2="10" y2="4"/>
    <path class="d" d="M10,4 L10,8 C14,6 18,6 20,8"/>
    <circle class="d" cx="20" cy="16" r="4"/>
    <line class="d" x1="24" y1="16" x2="24" y2="8"/>
  </g>
  <!-- Clock -->
  <g transform="translate(510,285)">
    <circle class="d" cx="14" cy="14" r="13"/>
    <line class="d" x1="14" y1="14" x2="14" y2="6"/>
    <line class="d" x1="14" y1="14" x2="22" y2="14"/>
    <circle class="df" cx="14" cy="14" r="1.5"/>
    <circle class="df" cx="14" cy="3" r="1"/>
    <circle class="df" cx="25" cy="14" r="1"/>
    <circle class="df" cx="14" cy="25" r="1"/>
    <circle class="df" cx="3" cy="14" r="1"/>
  </g>
  <!-- Paper airplane -->
  <g transform="translate(665,285) rotate(-10)">
    <polygon class="d" points="0,14 28,0 20,28 14,16"/>
    <line class="d" x1="28" y1="0" x2="14" y2="16"/>
    <line class="d" x1="14" y1="16" x2="14" y2="24"/>
  </g>
  <!-- Calculator -->
  <g transform="translate(60,420)">
    <rect class="d" x="0" y="0" width="24" height="32" rx="2"/>
    <rect class="d" x="4" y="4" width="16" height="8" rx="1"/>
    <circle class="df" cx="7" cy="17" r="1.5"/>
    <circle class="df" cx="12" cy="17" r="1.5"/>
    <circle class="df" cx="17" cy="17" r="1.5"/>
    <circle class="df" cx="7" cy="22" r="1.5"/>
    <circle class="df" cx="12" cy="22" r="1.5"/>
    <circle class="df" cx="17" cy="22" r="1.5"/>
    <circle class="df" cx="7" cy="27" r="1.5"/>
    <circle class="df" cx="12" cy="27" r="1.5"/>
    <rect class="df" x="15.5" y="22" width="3" height="7" rx="1"/>
  </g>
  <!-- Chat bubbles (double) -->
  <g transform="translate(180,415)">
    <path class="d" d="M4,2 L22,2 C24,2 26,4 26,6 L26,14 C26,16 24,18 22,18 L12,18 L8,22 L8,18 L4,18 C2,18 0,16 0,14 L0,6 C0,4 2,2 4,2Z"/>
    <path class="d" d="M10,22 L28,22 C30,22 32,24 32,26 L32,32 C32,34 30,36 28,36 L20,36 L16,40 L16,36 L10,36 C8,36 6,34 6,32 L6,26 C6,24 8,22 10,22Z"/>
  </g>
  <!-- Atom -->
  <g transform="translate(355,420)">
    <circle class="df" cx="14" cy="14" r="2.5"/>
    <ellipse class="d" cx="14" cy="14" rx="12" ry="5"/>
    <ellipse class="d" cx="14" cy="14" rx="12" ry="5" transform="rotate(60,14,14)"/>
    <ellipse class="d" cx="14" cy="14" rx="12" ry="5" transform="rotate(-60,14,14)"/>
  </g>
  <!-- Pin/Location -->
  <g transform="translate(515,418)">
    <path class="d" d="M14,2 C8,2 3,7 3,13 C3,20 14,30 14,30 C14,30 25,20 25,13 C25,7 20,2 14,2Z"/>
    <circle class="d" cx="14" cy="12" r="4"/>
  </g>
  <!-- Star -->
  <g transform="translate(667,418)">
    <polygon class="d" points="14,2 18,10 26,11 20,17 21,26 14,22 7,26 8,17 2,11 10,10"/>
  </g>
  <!-- Megaphone -->
  <g transform="translate(50,555)">
    <path class="d" d="M6,10 L6,20 L12,20 L12,10Z"/>
    <path class="d" d="M12,8 L28,2 L28,28 L12,22Z"/>
    <line class="d" x1="28" y1="12" x2="32" y2="10"/>
    <line class="d" x1="28" y1="15" x2="33" y2="15"/>
    <line class="d" x1="28" y1="18" x2="32" y2="20"/>
    <path class="d" d="M8,20 L8,26 L10,26 L12,20"/>
  </g>
  <!-- Flask/Science -->
  <g transform="translate(190,550)">
    <path class="d" d="M10,2 L10,12 L2,28 L26,28 L18,12 L18,2Z"/>
    <line class="d" x1="7" y1="2" x2="21" y2="2"/>
    <line class="d" x1="6" y1="20" x2="22" y2="20"/>
    <circle class="df" cx="10" cy="24" r="1.5"/>
    <circle class="df" cx="16" cy="23" r="1"/>
    <circle class="df" cx="19" cy="25" r="1.2"/>
  </g>
  <!-- Keyboard -->
  <g transform="translate(345,555)">
    <rect class="d" x="0" y="2" width="36" height="22" rx="2"/>
    <rect class="df" x="4" y="6" width="4" height="3" rx="0.5"/>
    <rect class="df" x="10" y="6" width="4" height="3" rx="0.5"/>
    <rect class="df" x="16" y="6" width="4" height="3" rx="0.5"/>
    <rect class="df" x="22" y="6" width="4" height="3" rx="0.5"/>
    <rect class="df" x="28" y="6" width="4" height="3" rx="0.5"/>
    <rect class="df" x="6" y="11" width="4" height="3" rx="0.5"/>
    <rect class="df" x="12" y="11" width="4" height="3" rx="0.5"/>
    <rect class="df" x="18" y="11" width="4" height="3" rx="0.5"/>
    <rect class="df" x="24" y="11" width="4" height="3" rx="0.5"/>
    <rect class="df" x="10" y="16" width="16" height="3" rx="0.5"/>
  </g>
  <!-- Antenna/Signal -->
  <g transform="translate(520,548)">
    <line class="d" x1="12" y1="28" x2="12" y2="14"/>
    <circle class="df" cx="12" cy="12" r="2.5"/>
    <path class="d" d="M4,6 C6,10 9,12 12,12 C15,12 18,10 20,6"/>
    <path class="d" d="M0,2 C4,8 8,12 12,12 C16,12 20,8 24,2"/>
    <line class="d" x1="6" y1="28" x2="18" y2="28"/>
    <line class="d" x1="8" y1="24" x2="16" y2="24"/>
  </g>
  <!-- Magnifying glass -->
  <g transform="translate(665,555)">
    <circle class="d" cx="12" cy="12" r="10"/>
    <line class="d" x1="19" y1="19" x2="28" y2="28" stroke-width="2"/>
    <circle class="d" cx="12" cy="12" r="5"/>
  </g>
  <!-- Notebook/notepad -->
  <g transform="translate(65,690)">
    <rect class="d" x="4" y="2" width="24" height="30" rx="1"/>
    <line class="d" x1="4" y1="8" x2="0" y2="8"/>
    <line class="d" x1="4" y1="14" x2="0" y2="14"/>
    <line class="d" x1="4" y1="20" x2="0" y2="20"/>
    <line class="d" x1="4" y1="26" x2="0" y2="26"/>
    <line class="d" x1="10" y1="8" x2="24" y2="8"/>
    <line class="d" x1="10" y1="13" x2="24" y2="13"/>
    <line class="d" x1="10" y1="18" x2="20" y2="18"/>
    <line class="d" x1="10" y1="23" x2="22" y2="23"/>
  </g>
  <!-- Lock/Security -->
  <g transform="translate(190,690)">
    <rect class="d" x="2" y="14" width="22" height="16" rx="2"/>
    <path class="d" d="M7,14 L7,8 C7,4 10,2 13,2 C16,2 19,4 19,8 L19,14"/>
    <circle class="df" cx="13" cy="22" r="2"/>
    <line class="d" x1="13" y1="24" x2="13" y2="27"/>
  </g>
  <!-- Cloud -->
  <g transform="translate(350,695)">
    <path class="d" d="M8,24 C4,24 0,21 0,17 C0,13 3,10 7,10 C7,6 11,2 16,2 C21,2 25,6 25,10 C28,10 32,13 32,17 C32,21 28,24 24,24Z"/>
    <line class="d" x1="10" y1="16" x2="22" y2="16"/>
    <line class="d" x1="12" y1="20" x2="20" y2="20"/>
  </g>
  <!-- Microphone -->
  <g transform="translate(522,688)">
    <rect class="d" x="6" y="2" width="12" height="18" rx="6"/>
    <path class="d" d="M2,16 C2,22 7,26 12,26 C17,26 22,22 22,16"/>
    <line class="d" x1="12" y1="26" x2="12" y2="32"/>
    <line class="d" x1="6" y1="32" x2="18" y2="32"/>
  </g>
  <!-- Cursor/Click -->
  <g transform="translate(668,690)">
    <polygon class="d" points="4,2 4,24 10,18 16,28 20,26 14,16 22,14"/>
  </g>
  <!-- Small scattered doodles for density -->
  <!-- Dots -->
  <circle class="df" cx="130" cy="70" r="2"/>
  <circle class="df" cx="270" cy="95" r="2"/>
  <circle class="df" cx="440" cy="55" r="2"/>
  <circle class="df" cx="590" cy="85" r="2"/>
  <circle class="df" cx="740" cy="60" r="2"/>
  <circle class="df" cx="100" cy="230" r="2"/>
  <circle class="df" cx="300" cy="210" r="2"/>
  <circle class="df" cx="460" cy="240" r="2"/>
  <circle class="df" cx="620" cy="220" r="2"/>
  <circle class="df" cx="750" cy="230" r="2"/>
  <circle class="df" cx="140" cy="370" r="2"/>
  <circle class="df" cx="280" cy="350" r="2"/>
  <circle class="df" cx="440" cy="380" r="2"/>
  <circle class="df" cx="600" cy="360" r="2"/>
  <circle class="df" cx="740" cy="370" r="2"/>
  <circle class="df" cx="120" cy="500" r="2"/>
  <circle class="df" cx="290" cy="510" r="2"/>
  <circle class="df" cx="470" cy="490" r="2"/>
  <circle class="df" cx="630" cy="510" r="2"/>
  <circle class="df" cx="750" cy="495" r="2"/>
  <circle class="df" cx="110" cy="640" r="2"/>
  <circle class="df" cx="280" cy="650" r="2"/>
  <circle class="df" cx="450" cy="635" r="2"/>
  <circle class="df" cx="610" cy="650" r="2"/>
  <circle class="df" cx="730" cy="640" r="2"/>
  <circle class="df" cx="140" cy="760" r="2"/>
  <circle class="df" cx="300" cy="770" r="2"/>
  <circle class="df" cx="470" cy="755" r="2"/>
  <circle class="df" cx="620" cy="770" r="2"/>
  <circle class="df" cx="740" cy="760" r="2"/>
  <!-- Small x marks -->
  <g class="d" transform="translate(130,120)"><line x1="0" y1="0" x2="6" y2="6"/><line x1="6" y1="0" x2="0" y2="6"/></g>
  <g class="d" transform="translate(430,110)"><line x1="0" y1="0" x2="6" y2="6"/><line x1="6" y1="0" x2="0" y2="6"/></g>
  <g class="d" transform="translate(600,130)"><line x1="0" y1="0" x2="6" y2="6"/><line x1="6" y1="0" x2="0" y2="6"/></g>
  <g class="d" transform="translate(260,260)"><line x1="0" y1="0" x2="6" y2="6"/><line x1="6" y1="0" x2="0" y2="6"/></g>
  <g class="d" transform="translate(450,330)"><line x1="0" y1="0" x2="6" y2="6"/><line x1="6" y1="0" x2="0" y2="6"/></g>
  <g class="d" transform="translate(130,460)"><line x1="0" y1="0" x2="6" y2="6"/><line x1="6" y1="0" x2="0" y2="6"/></g>
  <g class="d" transform="translate(610,470)"><line x1="0" y1="0" x2="6" y2="6"/><line x1="6" y1="0" x2="0" y2="6"/></g>
  <g class="d" transform="translate(270,590)"><line x1="0" y1="0" x2="6" y2="6"/><line x1="6" y1="0" x2="0" y2="6"/></g>
  <g class="d" transform="translate(480,610)"><line x1="0" y1="0" x2="6" y2="6"/><line x1="6" y1="0" x2="0" y2="6"/></g>
  <g class="d" transform="translate(700,590)"><line x1="0" y1="0" x2="6" y2="6"/><line x1="6" y1="0" x2="0" y2="6"/></g>
  <g class="d" transform="translate(390,740)"><line x1="0" y1="0" x2="6" y2="6"/><line x1="6" y1="0" x2="0" y2="6"/></g>
  <!-- Small plus marks -->
  <g class="d" transform="translate(250,50)"><line x1="0" y1="4" x2="8" y2="4"/><line x1="4" y1="0" x2="4" y2="8"/></g>
  <g class="d" transform="translate(580,40)"><line x1="0" y1="4" x2="8" y2="4"/><line x1="4" y1="0" x2="4" y2="8"/></g>
  <g class="d" transform="translate(720,170)"><line x1="0" y1="4" x2="8" y2="4"/><line x1="4" y1="0" x2="4" y2="8"/></g>
  <g class="d" transform="translate(110,325)"><line x1="0" y1="4" x2="8" y2="4"/><line x1="4" y1="0" x2="4" y2="8"/></g>
  <g class="d" transform="translate(640,330)"><line x1="0" y1="4" x2="8" y2="4"/><line x1="4" y1="0" x2="4" y2="8"/></g>
  <g class="d" transform="translate(330,470)"><line x1="0" y1="4" x2="8" y2="4"/><line x1="4" y1="0" x2="4" y2="8"/></g>
  <g class="d" transform="translate(740,500)"><line x1="0" y1="4" x2="8" y2="4"/><line x1="4" y1="0" x2="4" y2="8"/></g>
  <g class="d" transform="translate(170,620)"><line x1="0" y1="4" x2="8" y2="4"/><line x1="4" y1="0" x2="4" y2="8"/></g>
  <g class="d" transform="translate(560,650)"><line x1="0" y1="4" x2="8" y2="4"/><line x1="4" y1="0" x2="4" y2="8"/></g>
  <g class="d" transform="translate(240,760)"><line x1="0" y1="4" x2="8" y2="4"/><line x1="4" y1="0" x2="4" y2="8"/></g>
  <!-- Small triangles -->
  <polygon class="d" points="310,140 316,150 304,150"/>
  <polygon class="d" points="560,270 566,280 554,280"/>
  <polygon class="d" points="200,400 206,410 194,410"/>
  <polygon class="d" points="680,470 686,480 674,480"/>
  <polygon class="d" points="400,580 406,590 394,590"/>
  <polygon class="d" points="150,720 156,730 144,730"/>
  <polygon class="d" points="550,740 556,750 544,750"/>
  <!-- Small circles/rings -->
  <circle class="d" cx="400" cy="80" r="5"/>
  <circle class="d" cx="150" cy="200" r="5"/>
  <circle class="d" cx="700" cy="265" r="5"/>
  <circle class="d" cx="320" cy="340" r="5"/>
  <circle class="d" cx="550" cy="400" r="5"/>
  <circle class="d" cx="90" cy="530" r="5"/>
  <circle class="d" cx="400" cy="660" r="5"/>
  <circle class="d" cx="680" cy="730" r="5"/>
  <!-- Wavy lines -->
  <path class="d" d="M215,100 C220,95 225,105 230,100 C235,95 240,105 245,100"/>
  <path class="d" d="M520,190 C525,185 530,195 535,190 C540,185 545,195 550,190"/>
  <path class="d" d="M100,380 C105,375 110,385 115,380 C120,375 125,385 130,380"/>
  <path class="d" d="M380,500 C385,495 390,505 395,500 C400,495 405,505 410,500"/>
  <path class="d" d="M650,610 C655,605 660,615 665,610 C670,605 675,615 680,610"/>
  <path class="d" d="M220,700 C225,695 230,705 235,700 C240,695 245,705 250,700"/>
  <!-- Zigzags -->
  <polyline class="d" points="470,150 475,140 480,150 485,140 490,150"/>
  <polyline class="d" points="55,390 60,380 65,390 70,380 75,390"/>
  <polyline class="d" points="350,620 355,610 360,620 365,610 370,620"/>
  <polyline class="d" points="700,390 705,380 710,390 715,380 720,390"/>
  <!-- Small hearts -->
  <path class="d" transform="translate(240,170)" d="M5,3 C5,1 3,0 2,1 C0,2 0,4 2,6 L5,9 L8,6 C10,4 10,2 8,1 C7,0 5,1 5,3Z"/>
  <path class="d" transform="translate(750,430)" d="M5,3 C5,1 3,0 2,1 C0,2 0,4 2,6 L5,9 L8,6 C10,4 10,2 8,1 C7,0 5,1 5,3Z"/>
  <path class="d" transform="translate(490,720)" d="M5,3 C5,1 3,0 2,1 C0,2 0,4 2,6 L5,9 L8,6 C10,4 10,2 8,1 C7,0 5,1 5,3Z"/>
  <!-- Small diamonds -->
  <polygon class="d" points="760,110 765,120 760,130 755,120"/>
  <polygon class="d" points="40,500 45,510 40,520 35,510"/>
  <polygon class="d" points="530,600 535,610 530,620 525,610"/>
</svg>
